<?xml version="1.0" encoding="UTF-8"?>
<svg id="Layer_1" xmlns="http://www.w3.org/2000/svg" version="1.1" viewBox="0 0 512 512">
  <!-- Generator: Adobe Illustrator 29.8.2, SVG Export Plug-In . SVG Version: 2.1.1 Build 3)  -->
  <defs>
    <style>
      .st0 {
        fill: #1b1b1b;
      }
    </style>
  </defs>
  <path class="st0" d="M150,24.3c15-6.7,23,3,31.8,12.2,4.9,5.2,26.1,24,27.9,27.4,1.4,8.4-7.1,16.4-12.5,22.7l-1.3,1.5c10.9,22.5,19,63.2,32.9,80.5,13.2,16.5,12.9,16.4,20.2,35.7,10.5,27.6,48.9,72.1,69.8,94.8l15.2,16.7c31.1,34.1,40.1,64.5,41.5,108.5.2,7-.2,13.3,8.7,16.3,10.9,3.7,32.2.2,42.7-4.1,26.6-10.8,36.4-35.4,31.6-59.5-1.1-5.5-7.5-23.9,6.5-18.5,9.6,3.7,15.2,13.7,18.6,21.7,14.6,34.4-1.2,69.6-41.2,82.3-19.8,6.3-78.3,12.9-97.5,6,.3,19.4-18.3,18.6-34.4,18.8-8,.1-16,.5-23.9.7l-55.4,1.4c-8.3.2-16.6.7-25,.8h-2.5c-2.6.2-5.1.2-7.7,0-5.3-2.6-12.6-2.8-11.8-8.4.9-6,8.9-12.5,14.2-15.9,20.9-13.5,41.4-6.4,64.6-8.5-14.6-7.1-47.2-20.3-51.6-33.3-3.3-9.9-1.9-24.2,1.5-33.8-3.9-5.5-26.5-28-32.6-30.9-3.3,19.3-5.7,40.8-7.4,60.4-.6,7.5.4,16.3-1.1,23.5-.8,4.1-6.4,8.1-8.3,12.3-10.7,22.9-4.5,42.4-45.2,36.2-6.8-1-9.2-1.8-9.2-8-4-.4-10.4-.2-9.7-5.2.8-5.7,6.4-13.9,11.7-17.3,4.9-3.2,12.1-1.9,17.7-3.8,20.5-25.5,6.5-103.3-.4-135.1-3.1-14.3-.7-9.4-11-20.4-29.7-31.5-15.6-84.6-1.7-119.3,9.9-24.8-1.8-20.6-2.1-40.5-.1-9.8,3.7-17.9-2.3-27.3-5.5-8.6-17.8-12.6-28.7-12.1-21,.9-53.1-5.7-52.3-28.7-18-22.9,6.2-21.1,22.9-22.7,10.5-1,24.8-4.2,33.5-9.3,8.6-17.2,26.2-21.6,46.5-21,5.7.4,11.5,1,16.7,3.2Z"/>
</svg>