<?xml version="1.0" encoding="UTF-8"?>
<svg id="Layer_1" xmlns="http://www.w3.org/2000/svg" version="1.1" viewBox="0 0 1024 1024">
  <!-- Generator: Adobe Illustrator 29.8.2, SVG Export Plug-In . SVG Version: 2.1.1 Build 3)  -->
  <path d="M677.3,784c0,4.5,1.1,9.8,3.1,15.8,5.4,16.9,11.2,30.1,18.3,44.5,2.1,4.3,3.2,7.8,3.4,10.6.3,6.6-3.5,11.4-11.3,14.2-20.6,7.6-31.8,11.8-33.7,12.5-7.3,2.9-13.2,2.3-17.5-2s-4-5.9-6.4-11.9c-6.6-17.2-15.9-35.1-27.9-53.7-4.2-6.6-7.9-11.7-10.9-15.2-10.6-12.3-18.2-21.8-29.5-31.3-7.5-6.3-15.6-12.5-24.4-18.4-10-6.8-21.7-12.1-35.6-17-8.8-3.1-17-6.8-24.6-11.3-.4-.2-.8-.2-1.1,0-29,16.4-62.9,22.9-94.5,12.4-7.6-2.5-17-6.8-28.1-12.9-17.6-9.6-33.7-19.8-42.6-36.8-.5-1-2.3-4.4-5.2-10.3-5.2-10.4-8.8-17.7-22.3-13.6-17.4,5.2-32.2,9.8-49.8,5.2-.6-.2-5.3-1.8-14-4.8-8.1-2.8-15.8-3.8-23-2.9-9.4,1.1-15.9,1.8-19.5,1.9-21.2,1-38.7-5.8-52.7-20.5-8.5-8.9-11.5-22.4-23.1-29.4-3.3-2-6.9-4.1-10-6.6-13.6-11.1-21.8-25.9-24.5-44.6-1.6-11,.3-18.2,2.4-28.7.6-3.1.9-7.4.8-12.9-.4-23.4,2.3-43.6,14.8-63.7.9-1.5,1.4-3.7,1.3-6.7-.2-8.8-.2-13.3-.2-13.7-.2-12.8,2-28.6,9.7-39.1,8.4-11.6,18.3-22,29.5-31.3,2.6-2.2,4.7-6.1,6.2-10.2,2.8-7.7,4.8-12.7,5.9-15,6.4-13.5,15.7-24.5,27.7-32.9,13.3-9.3,26.3-16.1,41.8-24.2,3.5-1.8,7.1-4.9,11-9.1,4.6-5.2,8.6-9.6,12-13.2,17.1-18.4,38.2-25.6,63.1-25.9,1.3,0,2.4-.5,3.3-1.4,1.3-1.3,2.9-3.3,4.7-5.8,8.7-12.2,24.7-19.9,40-26,18.3-7.4,37.6-7.1,57.5-4.8,2.7.3,5.4,0,8.2-.9,8.3-2.8,16.8-5.4,25.5-7.8,23.1-6.4,47.8-8.9,71-7.5,15.2.9,26,3.8,39.7,8.9,3.1,1.1,5.5.8,8.8-.5,5.4-2.2,9.8-4,13.2-5.3,6-2.3,13.9-3.5,23.8-3.6,24.5-.3,47.6,6.6,69.4,15.9,10.7,4.6,18.2,11.9,26.1,18.6.9.8,2.1,1.3,3.3,1.4,19.4,1.4,38.1,5.6,56.2,12.7,12.5,4.9,24.5,11.1,33.2,20.3,8.2,8.7,15.1,19.7,19.6,26.4,6.8,10.2,17.3,12.8,27.5,18.1,8.3,4.3,15.3,10.5,20.9,18.6,6.6,9.5,11.5,19.1,14.7,29,2.7,8.2,5.2,15.1,7.5,20.9,1.3,3,3.2,5.8,6,8.4,6.2,5.8,12.9,10.7,18.6,17.5,14.7,17.6,20,38.1,17,61-.9,6.9.4,13.5,3.9,19.8,4.8,8.6,13.4,20.7,16.4,34.2,2.4,10.8,3.6,21.7,3.4,32.5,0,6.7-1.1,13-3.6,19.7-3.5,9.4-6.5,17.8-7.7,29.1-1.1,10.5-2,19.1-2.7,25.9-2.1,18.8-11.1,33.1-26.9,42.7-1.6,1-5,2.6-10.2,4.8-9.2,4-17.4,5.7-29.1,8.5-4.7,1.1-7.9,2.9-7.9,8.2,0,12.2-1.1,23.6-3.4,34.1-4.7,22-15.8,39.9-33.2,53.8-22.6,17.9-48.6,24.6-78.1,24.8-15,0-32.9,0-53.9-.2-.9,0-1.3.3-1.3.7h0Z"/>
  <path d="M479.9,294.2h.3c.1-.1.2-.1.2,0h0c4.2,12.2,7.2,23.9,8.9,35,0,.2.3.4.5.3.2,0,.3-.2.3-.3,1.6-9,1.4-17.8-.6-26.4-.6-2.7-2.6-8.1-5.8-16.2-.1-.3,0-.6.3-.7h0c.2-.1.5,0,.6.2,6.1,10.1,10.9,20.6,14.3,31.4.2.5.7.7,1.1.6.2-.1.4-.2.5-.4.5-.9.7-2,.7-3.3-.1-9.4-2.3-18.1-6.8-26.1,0,0-1.4-2.6-4.1-7.8-.1-.2,0-.6.2-.7h0l.3-.2h.2c4.5,6.2,8.2,11.3,11.1,15.4,3,4.2,4.8,9.1,7.4,13.9.2.3.5.4.8.2.2-.1.3-.3.3-.5.3-14.7-6.9-28.2-15.6-39.3-.1-.1-.1-.3,0-.4s.3-.1.4,0h0c6.4,4.6,11.3,11,16.3,17.3.5.6,1.3.7,1.9.2.4-.3.6-.9.5-1.4-2.4-8.7-6.3-17.7-14.6-22-3.9-2-13.4-6.4-14.6-9.1-.1-.3,0-.7.3-.9.1-.1.3-.1.5,0,4.4,1.4,10.6,3.1,18.4,5,1.5.4,4.5,1.8,8.8,4.3.4.2,1,.1,1.2-.3l1.3-2c.2-.4.6-.6,1.1-.7,3.7-.6,3.5,4.3,3.6,7.3,0,.2.2.4.4.4s.3-.1.3-.2c2.2-3.7,4.2-7.6,6-11.5,1.4-3,3.1-5.6,5.1-7.7.2-.2.4-.2.6,0q0,.1,0,.2c.5,2.9-2.2,10.5-4.4,18.4-.6,2-.7,4.8-.8,6.7,0,.5.4.9.9,1,.3,0,.6-.1.8-.3,1.7-2,3.8-5.3,6.5-10,2.9-5.1,4.1-11.5,6.6-16,0-.2.3-.3.5-.2,0,0,0,.1,0,.1,0,.2,0,.6,0,1.3-1,8.1-3.2,15.6-6.7,22.4,0,.1,0,.3,0,.3h.3c5-4.7,9.5-10,12.7-16.4,1.3-2.6,3-5.3,5-8,.2-.2.5-.3.7-.1,0,.1.2.3.2.5l-4.2,15.4c0,.3,0,.6.4.7,0,0,.3,0,.4-.1,7.5-4.3,11.6-10.7,12.4-19,0-.2.2-.4.4-.4h.3c0,0,.2.1.2.2.3,5.6-.6,10.8-2.7,15.6,0,.3,0,.6.3.7.2.1.5.1.6-.1l4.1-4.4c0-.1.3-.3.4-.5,1.4-2.4,3.2-5.6,5.3-9.7,0-.3.4-.4.7-.4s.8.3.8.7v.3l-4.5,13.2c0,.3,0,.6.3.7s.3,0,.5-.1c5.8-4.3,10.1-8.8,12.8-13.6.3-.4.8-.6,1.3-.3,0,.1.3.2.3.3,1.9,3.3-1.7,11.3-3.9,13.7-3.2,3.4-6.9,5.9-11.3,7.5-8.2,2.9-15.1,5.7-20.8,8.5-8.6,4.3-15,10.8-19.1,19.5-.3.6-.5,1.2-.6,1.8-.5,2.5-.9,4.3-1.2,5.3-.7,2.6-2.3,5.2-3.3,7.5,0,.3,0,.5.3.7h0c0,.1.3,0,.4-.1,2-2.7,4.2-4.8,6.7-6.5.4-.3,1-.2,1.3.2.2.2.2.5,0,.8-2,7-6.7,13.6-13.2,17.1-9.2,5-16.8,9.9-21.6,19.3-3,5.9-5.6,11.7-9.2,16.5-6.2,8.2-10,14.5-11.7,25-1.1,6.7-8.8,4.2-12.8,2.3-.9-.4-1.2-1.5-.8-2.3.2-.3.4-.6.7-.8l4.2-2.2c.4-.2.6-.7.4-1.1-.1-.2-.4-.4-.6-.4-4.2-.5-8.6-1.7-13.2-3.6-.1-.1-.2-.2-.1-.3,0-.1.1-.1.2-.1h11.6c.1,0,.2-.1.2-.2s0-.2-.1-.2l-11.2-7.1c-.1-.1-.3-.1-.4-.2l-4.3-1.2c-.2-.1-.3-.2-.2-.4,0-.1.1-.2.2-.2,1.2-.4,2.5-.4,3.9.1,6.1,2,10.8,3.4,14.3,4.3.2,0,.3-.1.4-.2,0-.1,0-.2-.1-.3-6-5.1-10.8-9-14.4-11.8-.3-.2-.3-.4-.2-.6.1-.1.1-.2.2-.3.1-.1.3-.1.4-.1l13.3,5.9c.7.3,1.6,0,2-.8.1-.3.2-.5.1-.8v-.3c-.4-1.3-1.4-2.4-2.6-2.8-7.5-2.7-13.9-7-19-12.8-.4-.4-.4-1.1.1-1.5.2-.2.5-.3.9-.3l8.8,1.3c.4.1.8-.2.9-.7,0-.2,0-.5-.2-.7-3.2-3.6-7.1-6.1-11.7-7.7-.3-.1-.5-.4-.4-.7.1-.2.3-.4.5-.4,5.3-.1,9.9,1.5,13.6,4.9.1.1.2.1.3,0q.1-.1.1-.2c-1.5-5.6-4.5-10.1-9-13.6-.3-.3-.4-.8-.1-1.1.1-.2.4-.3.6-.3,4.3,0,8,5,10.8,7.3.2.1.4.1.5,0s.1-.2.1-.4c-2.1-7.2-3.3-14.4-3.5-21.6,0-.2.2-.4.4-.4h.3c.1,0,.2.1.2.2.9,5.1,5.5,20.8,10.7,23.6.2.1.5.1.6-.2.1-.1.1-.2,0-.3-.7-3.2-2.3-12.1-4.9-26.9-.1-.6.1-.9.5-.9s.7.3.8.6l9.9,26.6c.1.3.4.4.7.3.2-.1.3-.2.3-.4.7-4.7.9-9.3.8-14.1-.2-6.9-1.4-14.6-3.5-23.1.3.1.4,0,.5,0Z"/>
</svg>