<?xml version="1.0" encoding="UTF-8"?>
<svg id="Layer_1" xmlns="http://www.w3.org/2000/svg" version="1.1" viewBox="0 0 64 64">
  <!-- Generator: Adobe Illustrator 29.8.2, SVG Export Plug-In . SVG Version: 2.1.1 Build 3)  -->
  <path d="M24.3,39.9l10.3,10c2.1,2.1,4.9,3.2,7.9,3.1,1.1,0,2.3-.2,3.3-.6,1.7-.6,3.2-1.5,4.5-2.8,4.2-4.4,4.1-11.4-.2-15.6l-8.2-8h0s-2.1-2-2.1-2l-2-2h0s-8.3-8-8.3-8c-2.1-2.1-4.9-3.2-7.9-3.1-1.8,0-3.5.5-5.1,1.3h0c-1,.5-1.9,1.2-2.7,2-2.1,2.1-3.2,4.9-3.1,7.9,0,3,1.2,5.7,3.4,7.8l10.4,10ZM37.8,30.2l8.2,8c2.1,2.1,2.2,5.4.1,7.6-1,1-2.3,1.6-3.8,1.6-1.4,0-2.8-.5-3.8-1.5l-8.2-8,7.1-7.3.4-.4Z"/>
</svg>