<?xml version="1.0" encoding="UTF-8"?>
<svg id="Line" xmlns="http://www.w3.org/2000/svg" version="1.1" viewBox="0 0 64 64">
  <!-- Generator: Adobe Illustrator 29.8.2, SVG Export Plug-In . SVG Version: 2.1.1 Build 3)  -->
  <path d="M55.4,28.3H12.2c-2.5,0-4.6,2.1-4.6,4.6s0,.5,0,.7c-2,.1-3.7,1.8-3.7,3.9s1.7,3.9,3.9,3.9h3.3l1.8,8.5c.4,1.7,1.9,3,3.7,3h7.4c1.4,0,2.7-.8,3.3-2.1l3.2-6.2c.3-.6.9-1,1.5-1h2.6c.6,0,1.2.4,1.5,1l3.3,6.2c.6,1.3,1.9,2,3.3,2h7.4c1.8,0,3.3-1.2,3.7-3l2.4-12.4c2.1-.4,3.7-2.2,3.7-4.5s-2.1-4.6-4.6-4.6ZM7.9,39.4c-1,0-1.9-.8-1.9-1.9s.8-1.9,1.9-1.9h11.3c1,0,1.9.8,1.9,1.9s-.8,1.9-1.9,1.9H7.9ZM51.9,49.4c-.2.8-.9,1.4-1.7,1.4h-7.4c-.6,0-1.2-.4-1.5-1l-3.3-6.2c-.7-1.2-1.9-2-3.3-2h-2.6c-1.4,0-2.7.8-3.3,2.1l-3.2,6.2c-.3.6-.9,1-1.5,1h-7.4c-.8,0-1.5-.6-1.7-1.4l-1.7-8h6c2.1,0,3.9-1.7,3.9-3.9h31.1l-2.3,11.9h0ZM55.6,35.5s0,0-.1,0H22.5c-.7-1.1-1.9-1.9-3.3-1.9h-9.5c0-.2-.1-.5-.1-.7,0-1.4,1.2-2.6,2.6-2.6h43.3c1.4,0,2.6,1.2,2.6,2.6s-1.1,2.5-2.4,2.6h0Z"/>
  <path d="M38.5,21.1c.4-.4.3-1.1-.1-1.4-1.9-1.6-4.1-2.4-6.5-2.4h0c-2.4,0-4.6.8-6.5,2.4-.4.4-.5,1-.1,1.4.2.2.5.4.8.4s.5,0,.6-.2c1.5-1.3,3.3-1.9,5.2-1.9h0c1.9,0,3.7.7,5.2,1.9.4.4,1.1.3,1.4-.1Z"/>
  <path d="M21.9,17.6c.3,0,.5-.1.7-.3,2.5-2.7,5.7-4.1,9.2-4.1h0c3.5,0,6.8,1.5,9.2,4.1.4.4,1,.4,1.4,0,.4-.4.4-1,0-1.4-2.8-3.1-6.6-4.7-10.7-4.7h0c-4,0-7.8,1.7-10.7,4.8-.4.4-.4,1,0,1.4.2.2.4.3.7.3Z"/>
  <ellipse cx="31.9" cy="23.7" rx="1" ry="1"/>
  <ellipse cx="10.8" cy="37.5" rx="1" ry="1"/>
  <ellipse cx="16.2" cy="37.5" rx="1" ry="1"/>
</svg>